<!--?xml version="1.0" standalone="no"?-->
              <svg id="sw-js-blob-svg" viewBox="0 0 100 100" xmlns="http://www.w3.org/2000/svg" version="1.1">
                    <defs> 
                        <linearGradient id="sw-gradient" x1="0" x2="1" y1="1" y2="0">
                            <stop id="stop1" stop-color="rgba(206, 0, 51, 1)" offset="0%"></stop>
                            <stop id="stop2" stop-color="rgba(251, 168, 31, 1)" offset="100%"></stop>
                        </linearGradient>
                    </defs>
                <path fill="url(#sw-gradient)" d="M19.5,-35.8C24.9,-30.6,28.8,-24.7,32.8,-18.6C36.8,-12.6,41.1,-6.3,42.1,0.6C43.2,7.5,41,15,37,21C32.9,27.1,27,31.7,20.5,35.4C14,39,7,41.8,0.2,41.4C-6.5,41,-13.1,37.4,-19.6,33.8C-26.2,30.2,-32.8,26.5,-37.6,20.8C-42.3,15.2,-45,7.6,-45.6,-0.3C-46.1,-8.2,-44.3,-16.4,-40.3,-23.3C-36.3,-30.2,-30.2,-35.9,-23.1,-40.1C-16,-44.3,-8,-46.9,-0.5,-46.1C7,-45.3,14.1,-40.9,19.5,-35.8Z" width="100%" height="100%" transform="translate(50 50)" stroke-width="0" style="transition: all 0.3s ease 0s;"></path>
              </svg>